<?xml version="1.0" encoding="UTF-8" standalone="no"?>
<!-- Created with Inkscape (http://www.inkscape.org/) -->

<svg
   xmlns:dc="http://purl.org/dc/elements/1.1/"
   xmlns:cc="http://creativecommons.org/ns#"
   xmlns:rdf="http://www.w3.org/1999/02/22-rdf-syntax-ns#"
   xmlns:svg="http://www.w3.org/2000/svg"
   xmlns="http://www.w3.org/2000/svg"
   xmlns:sodipodi="http://sodipodi.sourceforge.net/DTD/sodipodi-0.dtd"
   xmlns:inkscape="http://www.inkscape.org/namespaces/inkscape"
   width="245.86633"
   height="145.40428"
   id="svg2"
   version="1.1"
   inkscape:version="0.48.4 r9939">
  <defs
     id="defs4">
    <filter
       id="filter4055"
       style="color-interpolation-filters:sRGB;"
       inkscape:label="Drop Shadow">
      <feFlood
         id="feFlood4057"
         flood-opacity="0.37"
         flood-color="rgb(0,0,0)"
         result="flood"
         stdDeviation="0.5" />
      <feComposite
         id="feComposite4059"
         in="flood"
         operator="in"
         result="composite1"
         in2="SourceGraphic" />
      <feGaussianBlur
         id="feGaussianBlur4061"
         in="composite"
         stdDeviation="0.40000000000000002"
         result="blur" />
      <feOffset
         id="feOffset4063"
         dx="0"
         dy="1.2"
         result="offset" />
      <feComposite
         id="feComposite4065"
         in2="offset"
         operator="over"
         result="composite2"
         in="SourceGraphic" />
    </filter>
  </defs>
  <metadata
     id="metadata7">
    <rdf:RDF>
      <cc:Work
         rdf:about="">
        <dc:format>image/svg+xml</dc:format>
        <dc:type
           rdf:resource="http://purl.org/dc/dcmitype/StillImage" />
        <dc:title />
      </cc:Work>
    </rdf:RDF>
  </metadata>
  <g
     inkscape:label="Layer 1"
     inkscape:groupmode="layer"
     id="layer1"
     transform="translate(-672.57321,-691.00516)">
    <g
       transform="matrix(2.6869311,0,0,2.6869311,-653.6705,-1377.3797)"
       style="font-size:40px;font-style:normal;font-variant:normal;font-weight:bold;font-stretch:normal;fill:#000000;fill-opacity:1;stroke:none;filter:url(#filter4055);letter-spacing:1.11651539999999994px;font-family:Futura Std;-inkscape-font-specification:Futura Std Bold"
       id="text3016">
      <path
         d="m 507.56207,787.27962 -5.6,0 0,30.12 5.6,0 0,-30.12 m -2.8,-11.56 c -1.84,0 -3.32,1.52 -3.32,3.32 0,1.83999 1.48,3.32 3.32,3.32 1.84,0 3.32,-1.48001 3.32,-3.32 0,-1.8 -1.48,-3.32 -3.32,-3.32"
         id="path50" />
      <path
         d="m 531.51483,787.27962 -5.52,0 0,1.84 c -1.36,-1.6 -3.44,-2.48 -5.48,-2.48 -5.63999,0 -8.96,5.16 -8.96,10.36 0,5.31999 3.28001,10.56 9.04,10.56 2.04,0 4.12,-0.88 5.32,-2.44 l 0.08,0 0,1.8 5.52,0 0,-19.64 m -9.64,15.32 c -2.87999,0 -4.64,-2.88001 -4.64,-5.52 0,-2.64 1.76001,-5.48 4.64,-5.48 2.88,0 4.68,2.84 4.68,5.48 0,2.63999 -1.8,5.52 -4.68,5.52"
         id="path52" />
      <path
         d="m 549.64948,806.91962 5.6,0 0,-33.92 -5.6,0 0,16.08 -0.08,0 c -1.24,-1.56 -3.32001,-2.44 -5.36,-2.44 -5.64,0 -8.96,5.16 -8.96,10.36 0,5.31999 3.28,10.56 9.04,10.56 2.03999,0 4.12,-0.88 5.28,-2.48 l 0.08,0 0,1.84 m -4.08,-4.32 c -2.88,0 -4.64,-2.88001 -4.64,-5.52 0,-2.64 1.76,-5.48 4.64,-5.48 2.87999,0 4.64,2.84 4.64,5.48 0,2.63999 -1.76001,5.52 -4.64,5.52"
         id="path54" />
      <path
         d="m 577.78411,797.99962 0,-0.68 c 0,-5.92 -2.88,-10.68 -9.32,-10.68 -6.35999,0 -9.52,4.68 -9.52,10.64 0,5.95999 3.72001,10.28 9.8,10.28 4.12,0 7.56,-2.20001 8.92,-6.12 l -5.16,-0.84 c -0.76,1.56 -1.92,2.68 -3.76,2.68 -2.91999,0 -3.88,-2.80001 -3.88,-5.28 l 12.92,0 m -12.76,-3.48 c 0.28,-2.04 1.52,-3.96 3.76,-3.96 2.16,0 3.44,1.96 3.72,3.96 l -7.48,0"
         id="path56" />
    </g>
    <g
       style="font-size:40px;font-style:normal;font-variant:normal;font-weight:normal;font-stretch:normal;line-height:125%;letter-spacing:0px;word-spacing:0px;fill:#757575;fill-opacity:1;stroke:none;font-family:Merriweather;-inkscape-font-specification:Merriweather"
       id="text3035">
      <path
         d="m 730.95453,821.45728 -1.79053,0 -6.80029,-10.40918 0,10.40918 -1.79053,0 0,-13.50782 1.79053,0 6.81885,10.45557 0,-10.45557 1.77197,0 0,13.50782"
         style="font-size:19px;font-family:Roboto;-inkscape-font-specification:Roboto;fill:#757575;fill-opacity:1"
         id="path3015" />
      <path
         d="m 733.39447,816.34546 c 0,-0.72981 0.10514,-1.40397 0.31543,-2.02246 0.21647,-0.62467 0.51953,-1.16585 0.90918,-1.62354 0.39583,-0.45767 0.87516,-0.81639 1.43799,-1.07617 0.56282,-0.25975 1.19368,-0.38964 1.89258,-0.38965 0.71125,10e-6 1.3483,0.1299 1.91113,0.38965 0.569,0.25978 1.05142,0.6185 1.44726,1.07617 0.39583,0.45769 0.69889,0.99887 0.90918,1.62354 0.21028,0.61849 0.31542,1.29265 0.31543,2.02246 l 0,0.2041 c -10e-6,0.72982 -0.10515,1.40707 -0.31543,2.03174 -0.21029,0.61849 -0.51335,1.15658 -0.90918,1.61426 -0.39584,0.45149 -0.87517,0.80713 -1.43798,1.06689 -0.56284,0.25358 -1.19679,0.38037 -1.90186,0.38037 -0.70508,0 -1.33903,-0.12679 -1.90185,-0.38037 -0.56283,-0.25976 -1.04216,-0.6154 -1.43799,-1.06689 -0.39584,-0.45768 -0.70199,-0.99577 -0.91846,-1.61426 -0.21029,-0.62467 -0.31543,-1.30192 -0.31543,-2.03174 l 0,-0.2041 m 1.72559,0.2041 c -10e-6,0.50098 0.0588,0.97413 0.17627,1.41943 0.11751,0.44532 0.29378,0.83806 0.5288,1.17823 0.24121,0.33398 0.53809,0.59993 0.89063,0.79785 0.35872,0.19792 0.7762,0.29687 1.25244,0.29687 0.47005,0 0.88443,-0.0989 1.24316,-0.29687 0.35872,-0.19792 0.6556,-0.46387 0.89063,-0.79785 0.23502,-0.34017 0.41129,-0.73291 0.52881,-1.17823 0.12369,-0.4453 0.18554,-0.91845 0.18555,-1.41943 l 0,-0.2041 c -1e-5,-0.49479 -0.0619,-0.96484 -0.18555,-1.41016 -0.11752,-0.45149 -0.29688,-0.84423 -0.53809,-1.17822 -0.23503,-0.34016 -0.53191,-0.6092 -0.89062,-0.80713 -0.35873,-0.20409 -0.77621,-0.30614 -1.25244,-0.30615 -0.47006,10e-6 -0.88136,0.10206 -1.23389,0.30615 -0.35254,0.19793 -0.64942,0.46697 -0.89063,0.80713 -0.23502,0.33399 -0.41129,0.72673 -0.5288,1.17822 -0.11752,0.44532 -0.17628,0.91537 -0.17627,1.41016 l 0,0.2041"
         style="font-size:19px;font-family:Roboto;-inkscape-font-specification:Roboto;fill:#757575;fill-opacity:1"
         id="path3017" />
      <path
         d="m 744.26752,816.35474 c 0,-0.76692 0.0928,-1.46272 0.27832,-2.08741 0.19173,-0.63085 0.46077,-1.16893 0.80713,-1.61425 0.34635,-0.45149 0.76074,-0.80094 1.24316,-1.04834 0.4886,-0.24739 1.03287,-0.37109 1.63281,-0.3711 0.6123,10e-6 1.1473,0.10516 1.60498,0.31543 0.45768,0.20411 0.85351,0.50099 1.1875,0.89063 l 0,-5.23242 1.71631,0 0,14.25 -1.57715,0 -0.0835,-1.07618 c -0.33399,0.40821 -0.73601,0.72054 -1.20606,0.93702 -0.47006,0.21647 -1.0236,0.3247 -1.66064,0.3247 -0.58757,0 -1.12566,-0.12679 -1.61426,-0.38037 -0.48242,-0.25358 -0.89681,-0.60612 -1.24316,-1.05762 -0.34636,-0.45768 -0.6154,-0.99576 -0.80713,-1.61425 -0.18555,-0.62467 -0.27832,-1.30501 -0.27832,-2.04102 l 0,-0.19482 m 1.71631,0.19482 c -10e-6,0.50098 0.0495,0.97413 0.14843,1.41943 0.10514,0.43913 0.26595,0.8226 0.48243,1.15039 0.21646,0.32781 0.49169,0.58757 0.82568,0.7793 0.33398,0.19173 0.7329,0.2876 1.19678,0.2876 0.30305,0 0.57519,-0.034 0.8164,-0.10205 0.24121,-0.0742 0.45768,-0.17627 0.64942,-0.30615 0.19791,-0.12988 0.37108,-0.28451 0.51953,-0.46387 0.15461,-0.17936 0.28759,-0.37728 0.39892,-0.59375 l 0,-4.61084 c -0.11133,-0.20409 -0.24121,-0.39273 -0.38965,-0.56592 -0.14844,-0.17317 -0.32162,-0.32161 -0.51953,-0.44531 -0.19173,-0.12988 -0.40821,-0.22883 -0.64941,-0.29688 -0.24122,-0.0742 -0.51026,-0.11132 -0.80713,-0.11132 -0.47006,0 -0.87517,0.099 -1.21533,0.29687 -0.33399,0.19174 -0.60922,0.4546 -0.82568,0.78857 -0.21648,0.334 -0.37729,0.72364 -0.48243,1.16895 -0.099,0.43913 -0.14844,0.90919 -0.14843,1.41016 l 0,0.19482"
         style="font-size:19px;font-family:Roboto;-inkscape-font-specification:Roboto;fill:#757575;fill-opacity:1"
         id="path3019" />
      <path
         d="m 759.57513,821.64282 c -0.69889,0 -1.33284,-0.1206 -1.90185,-0.36181 -0.56283,-0.24121 -1.04525,-0.5752 -1.44727,-1.00196 -0.40202,-0.43294 -0.71126,-0.94628 -0.92773,-1.54004 -0.21647,-0.59374 -0.32471,-1.24316 -0.32471,-1.94824 l 0,-0.38965 c 0,-0.8164 0.12061,-1.54621 0.36182,-2.18945 0.24739,-0.64322 0.57519,-1.1844 0.9834,-1.62354 0.4082,-0.43911 0.87516,-0.7731 1.40088,-1.00195 0.52571,-0.23501 1.07307,-0.35253 1.64209,-0.35254 0.71744,10e-6 1.33593,0.1268 1.85546,0.38037 0.51953,0.24741 0.94629,0.59067 1.28028,1.02979 0.34016,0.43913 0.59065,0.95867 0.75146,1.55859 0.1608,0.59994 0.2412,1.25245 0.24121,1.95752 l 0,0.77002 -6.80029,0 c 0.0124,0.46387 0.0866,0.89682 0.22266,1.29883 0.14225,0.40202 0.34016,0.75147 0.59375,1.04834 0.25976,0.29688 0.569,0.5319 0.92773,0.70508 0.36491,0.17318 0.7762,0.25976 1.23389,0.25976 0.60611,0 1.11946,-0.12369 1.54004,-0.37109 0.42056,-0.24739 0.78856,-0.57519 1.104,-0.9834 l 1.04834,0.81641 c -0.16082,0.24739 -0.35564,0.48861 -0.58447,0.72363 -0.22885,0.22884 -0.49789,0.43604 -0.80713,0.62158 -0.30307,0.17936 -0.65251,0.32162 -1.04834,0.42676 -0.39584,0.11133 -0.84425,0.16699 -1.34522,0.16699 m -0.21337,-8.99902 c -0.34636,10e-6 -0.66489,0.0649 -0.95557,0.19482 -0.2907,0.12371 -0.55046,0.30616 -0.7793,0.54737 -0.22884,0.24122 -0.42057,0.54118 -0.57519,0.8999 -0.14844,0.35873 -0.25049,0.77002 -0.30616,1.23389 l 5.02832,0 0,-0.12989 c -0.0186,-0.33398 -0.0742,-0.66487 -0.16699,-0.99267 -0.0866,-0.3278 -0.22575,-0.62158 -0.41748,-0.88135 -0.18555,-0.25976 -0.42676,-0.47004 -0.72363,-0.63086 -0.29688,-0.1608 -0.66488,-0.2412 -1.104,-0.24121"
         style="font-size:19px;font-family:Roboto;-inkscape-font-specification:Roboto;fill:#757575;fill-opacity:1"
         id="path3021" />
      <path
         d="m 779.4101,809.41528 -4.3418,0 0,12.042 -1.77197,0 0,-12.042 -4.33252,0 0,-1.46582 10.44629,0 0,1.46582"
         style="font-size:19px;font-family:Roboto;-inkscape-font-specification:Roboto;fill:#757575;fill-opacity:1"
         id="path3023" />
      <path
         d="m 784.40131,821.64282 c -0.6989,0 -1.33285,-0.1206 -1.90186,-0.36181 -0.56283,-0.24121 -1.04525,-0.5752 -1.44726,-1.00196 -0.40202,-0.43294 -0.71127,-0.94628 -0.92774,-1.54004 -0.21647,-0.59374 -0.32471,-1.24316 -0.32471,-1.94824 l 0,-0.38965 c 0,-0.8164 0.12061,-1.54621 0.36182,-2.18945 0.24739,-0.64322 0.57519,-1.1844 0.9834,-1.62354 0.4082,-0.43911 0.87516,-0.7731 1.40088,-1.00195 0.52571,-0.23501 1.07307,-0.35253 1.64209,-0.35254 0.71744,10e-6 1.33593,0.1268 1.85547,0.38037 0.51952,0.24741 0.94628,0.59067 1.28027,1.02979 0.34016,0.43913 0.59065,0.95867 0.75146,1.55859 0.1608,0.59994 0.24121,1.25245 0.24122,1.95752 l 0,0.77002 -6.8003,0 c 0.0124,0.46387 0.0866,0.89682 0.22266,1.29883 0.14225,0.40202 0.34016,0.75147 0.59375,1.04834 0.25976,0.29688 0.569,0.5319 0.92773,0.70508 0.36491,0.17318 0.7762,0.25976 1.23389,0.25976 0.60611,0 1.11946,-0.12369 1.54004,-0.37109 0.42056,-0.24739 0.78856,-0.57519 1.104,-0.9834 l 1.04834,0.81641 c -0.16081,0.24739 -0.35564,0.48861 -0.58447,0.72363 -0.22885,0.22884 -0.49789,0.43604 -0.80713,0.62158 -0.30307,0.17936 -0.65251,0.32162 -1.04834,0.42676 -0.39584,0.11133 -0.84424,0.16699 -1.34521,0.16699 m -0.21338,-8.99902 c -0.34636,10e-6 -0.66488,0.0649 -0.95557,0.19482 -0.29069,0.12371 -0.55046,0.30616 -0.7793,0.54737 -0.22884,0.24122 -0.42057,0.54118 -0.57519,0.8999 -0.14844,0.35873 -0.25049,0.77002 -0.30615,1.23389 l 5.02832,0 0,-0.12989 c -0.0186,-0.33398 -0.0742,-0.66487 -0.167,-0.99267 -0.0866,-0.3278 -0.22575,-0.62158 -0.41748,-0.88135 -0.18555,-0.25976 -0.42676,-0.47004 -0.72363,-0.63086 -0.29688,-0.1608 -0.66488,-0.2412 -1.104,-0.24121"
         style="font-size:19px;font-family:Roboto;-inkscape-font-specification:Roboto;fill:#757575;fill-opacity:1"
         id="path3025" />
      <path
         d="m 791.90668,811.41919 0.0464,1.11328 c 0.34635,-0.40819 0.76383,-0.72671 1.25245,-0.95557 0.49478,-0.22883 1.06998,-0.34325 1.72558,-0.34326 0.64941,10e-6 1.22151,0.1299 1.71631,0.38965 0.50097,0.25359 0.88443,0.66179 1.15039,1.22461 0.33398,-0.48241 0.76692,-0.87206 1.29883,-1.16894 0.53807,-0.29687 1.17203,-0.44531 1.90185,-0.44532 0.53808,10e-6 1.01431,0.0711 1.42872,0.21338 0.41437,0.13608 0.76382,0.35255 1.04833,0.64942 0.29068,0.29688 0.51024,0.67416 0.6587,1.13183 0.14842,0.45769 0.22264,1.00196 0.22265,1.63281 l 0,6.5962 -1.71631,0 0,-6.60547 c -1e-5,-0.42057 -0.0526,-0.77002 -0.15771,-1.04834 -0.099,-0.27832 -0.24123,-0.50097 -0.42676,-0.66797 -0.18556,-0.16699 -0.41131,-0.28141 -0.67724,-0.34326 -0.26597,-0.068 -0.55975,-0.10205 -0.88135,-0.10205 -0.35255,0 -0.66489,0.0557 -0.93701,0.16699 -0.27215,0.11133 -0.50718,0.26286 -0.70508,0.45459 -0.19174,0.18555 -0.34637,0.40821 -0.46387,0.66797 -0.11134,0.25358 -0.18246,0.52572 -0.21338,0.8164 l 0,6.66114 -1.72558,0 0,-6.5962 c -10e-6,-0.38964 -0.0526,-0.72053 -0.15772,-0.99267 -0.099,-0.27831 -0.24122,-0.50406 -0.42676,-0.67725 -0.18555,-0.17317 -0.4113,-0.29996 -0.67724,-0.38037 -0.25977,-0.0804 -0.55356,-0.1206 -0.88135,-0.1206 -0.61231,0 -1.10401,0.13298 -1.4751,0.39892 -0.3711,0.26596 -0.64942,0.61231 -0.83496,1.03906 l 0,7.32911 -1.71631,0 0,-10.03809 1.62354,0"
         style="font-size:19px;font-family:Roboto;-inkscape-font-specification:Roboto;fill:#757575;fill-opacity:1"
         id="path3027" />
      <path
         d="m 815.43402,816.54956 c -1e-5,0.73601 -0.0866,1.41635 -0.25976,2.04102 -0.17319,0.61849 -0.42677,1.15657 -0.76075,1.61425 -0.3278,0.4515 -0.73291,0.80404 -1.21533,1.05762 -0.48243,0.25358 -1.03288,0.38037 -1.65137,0.38037 -0.63086,0 -1.18441,-0.099 -1.66064,-0.29687 -0.47006,-0.19792 -0.87517,-0.48552 -1.21533,-0.8628 l 0,4.8335 -1.71631,0 0,-13.89746 1.56787,0 0.0835,1.11328 c 0.34016,-0.42056 0.75146,-0.74218 1.23388,-0.96484 0.48242,-0.22265 1.04215,-0.33398 1.6792,-0.33399 0.63085,10e-6 1.18749,0.12371 1.66992,0.3711 0.4886,0.2474 0.8999,0.59685 1.23389,1.04834 0.33398,0.44532 0.58446,0.9834 0.75147,1.61425 0.17316,0.62469 0.25975,1.32049 0.25976,2.08741 l 0,0.19482 m -1.71631,-0.19482 c -10e-6,-0.50097 -0.0526,-0.97103 -0.15771,-1.41016 -0.10515,-0.44531 -0.26905,-0.83495 -0.4917,-1.16895 -0.22267,-0.33397 -0.50408,-0.59683 -0.84424,-0.78857 -0.34018,-0.19791 -0.74529,-0.29687 -1.21533,-0.29687 -0.2907,0 -0.55665,0.034 -0.79785,0.10205 -0.23503,0.068 -0.44841,0.1639 -0.64014,0.28759 -0.19174,0.12371 -0.36182,0.27215 -0.51025,0.44532 -0.14844,0.167 -0.27833,0.34945 -0.38965,0.54736 l 0,4.79639 c 0.11132,0.19792 0.24121,0.38346 0.38965,0.55664 0.14843,0.16699 0.31851,0.31234 0.51025,0.43603 0.19173,0.11752 0.4082,0.21029 0.64941,0.27832 0.24121,0.068 0.51025,0.10205 0.80713,0.10205 0.46386,0 0.86279,-0.0989 1.19678,-0.29687 0.34016,-0.19792 0.62157,-0.46387 0.84424,-0.79785 0.22265,-0.33398 0.38655,-0.72363 0.4917,-1.16895 0.10513,-0.45149 0.1577,-0.92773 0.15771,-1.42871 l 0,-0.19482"
         style="font-size:19px;font-family:Roboto;-inkscape-font-specification:Roboto;fill:#757575;fill-opacity:1"
         id="path3029" />
      <path
         d="m 819.46967,821.45728 -1.71631,0 0,-14.25 1.71631,0 0,14.25"
         style="font-size:19px;font-family:Roboto;-inkscape-font-specification:Roboto;fill:#757575;fill-opacity:1"
         id="path3031" />
      <path
         d="m 828.40375,821.45728 c -0.0619,-0.1237 -0.11134,-0.27832 -0.14844,-0.46387 -0.0371,-0.19173 -0.068,-0.38965 -0.0928,-0.59375 -0.16082,0.16699 -0.34327,0.3278 -0.54737,0.48242 -0.19792,0.14844 -0.41748,0.28141 -0.65869,0.39893 -0.23503,0.11132 -0.4917,0.19791 -0.77002,0.25976 -0.27832,0.068 -0.57211,0.10205 -0.88135,0.10205 -0.51335,0 -0.9803,-0.0773 -1.40087,-0.23193 -0.41439,-0.15462 -0.77003,-0.36491 -1.0669,-0.63086 -0.29069,-0.26595 -0.51644,-0.57829 -0.67724,-0.93701 -0.16081,-0.36491 -0.24122,-0.75456 -0.24122,-1.16895 0,-0.53808 0.10515,-1.01122 0.31543,-1.41943 0.21029,-0.41438 0.51026,-0.76074 0.89991,-1.03906 0.39583,-0.27832 0.87206,-0.4886 1.42871,-0.63086 0.55663,-0.14225 1.17822,-0.21338 1.86474,-0.21338 l 1.70703,0 0,-0.78858 c 0,-0.59992 -0.17936,-1.07616 -0.53808,-1.42871 -0.35873,-0.35871 -0.88754,-0.53807 -1.58643,-0.53808 -0.32162,1e-5 -0.6154,0.0433 -0.88134,0.12988 -0.26596,0.0866 -0.4948,0.20411 -0.68653,0.35254 -0.18555,0.14226 -0.33089,0.30925 -0.43603,0.50098 -0.10515,0.19173 -0.15772,0.39274 -0.15772,0.60302 l -1.72558,0 c -10e-6,-0.35871 0.0928,-0.71434 0.27832,-1.06689 0.19173,-0.35253 0.46077,-0.66796 0.80713,-0.94629 0.34635,-0.2845 0.76383,-0.51334 1.25244,-0.68652 0.49478,-0.17936 1.04524,-0.26904 1.65136,-0.26905 0.54427,10e-6 1.04524,0.0711 1.50293,0.21338 0.46386,0.13608 0.8597,0.34637 1.1875,0.63086 0.32779,0.27833 0.58447,0.62778 0.77002,1.04834 0.18554,0.42058 0.27831,0.91228 0.27832,1.4751 l 0,4.6665 c -10e-6,0.34017 0.0278,0.6989 0.0835,1.07617 0.0618,0.3711 0.15152,0.69271 0.26904,0.96485 l 0,0.14844 -1.7998,0 m -2.84815,-1.30811 c 0.30924,0 0.59993,-0.0433 0.87207,-0.12988 0.27213,-0.0866 0.51953,-0.19792 0.74219,-0.33399 0.22265,-0.14225 0.41438,-0.30306 0.5752,-0.48242 0.16698,-0.17936 0.29686,-0.36491 0.38964,-0.55664 l 0,-2.05957 -1.42871,0 c -0.9834,0 -1.74105,0.15463 -2.27295,0.46387 -0.5319,0.30306 -0.79785,0.76384 -0.79785,1.38232 0,0.24122 0.0402,0.46696 0.12061,0.67725 0.0804,0.21029 0.201,0.39274 0.36181,0.54736 0.16699,0.14844 0.368,0.26905 0.60303,0.36182 0.24121,0.0866 0.51953,0.12988 0.83496,0.12988"
         style="font-size:19px;font-family:Roboto;-inkscape-font-specification:Roboto;fill:#757575;fill-opacity:1"
         id="path3033" />
      <path
         d="m 834.88861,808.98853 0,2.43066 1.87402,0 0,1.32666 -1.87402,0 0,6.2251 c 0,0.25977 0.0309,0.47005 0.0928,0.63086 0.0619,0.15462 0.14225,0.27523 0.24122,0.36181 0.10513,0.0866 0.22265,0.14535 0.35253,0.17627 0.13607,0.0247 0.27523,0.0371 0.41748,0.0371 0.14225,0 0.29069,-0.0124 0.44532,-0.0371 0.1608,-0.0309 0.2845,-0.0557 0.37109,-0.0742 l 0,1.39161 c -0.13607,0.0371 -0.31234,0.0773 -0.52881,0.1206 -0.21647,0.0433 -0.47933,0.0649 -0.78857,0.0649 -0.31544,0 -0.6154,-0.0464 -0.8999,-0.13916 -0.27833,-0.0866 -0.52263,-0.23502 -0.73291,-0.44531 -0.21029,-0.21029 -0.37729,-0.48551 -0.50098,-0.82568 -0.1237,-0.34636 -0.18555,-0.77002 -0.18555,-1.271 l 0,-6.21582 -1.82763,0 0,-1.32666 1.82763,0 0,-2.43066 1.71631,0"
         style="font-size:19px;font-family:Roboto;-inkscape-font-specification:Roboto;fill:#757575;fill-opacity:1"
         id="path3035" />
      <path
         d="m 842.92279,821.64282 c -0.6989,0 -1.33285,-0.1206 -1.90185,-0.36181 -0.56283,-0.24121 -1.04525,-0.5752 -1.44727,-1.00196 -0.40202,-0.43294 -0.71126,-0.94628 -0.92773,-1.54004 -0.21648,-0.59374 -0.32471,-1.24316 -0.32471,-1.94824 l 0,-0.38965 c 0,-0.8164 0.1206,-1.54621 0.36181,-2.18945 0.2474,-0.64322 0.5752,-1.1844 0.9834,-1.62354 0.4082,-0.43911 0.87516,-0.7731 1.40088,-1.00195 0.52571,-0.23501 1.07308,-0.35253 1.64209,-0.35254 0.71744,10e-6 1.33593,0.1268 1.85547,0.38037 0.51952,0.24741 0.94628,0.59067 1.28027,1.02979 0.34016,0.43913 0.59065,0.95867 0.75147,1.55859 0.1608,0.59994 0.2412,1.25245 0.24121,1.95752 l 0,0.77002 -6.80029,0 c 0.0124,0.46387 0.0866,0.89682 0.22265,1.29883 0.14225,0.40202 0.34017,0.75147 0.59375,1.04834 0.25976,0.29688 0.56901,0.5319 0.92774,0.70508 0.3649,0.17318 0.7762,0.25976 1.23388,0.25976 0.60612,0 1.11946,-0.12369 1.54004,-0.37109 0.42057,-0.24739 0.78857,-0.57519 1.10401,-0.9834 l 1.04834,0.81641 c -0.16082,0.24739 -0.35564,0.48861 -0.58448,0.72363 -0.22885,0.22884 -0.49789,0.43604 -0.80712,0.62158 -0.30307,0.17936 -0.65252,0.32162 -1.04834,0.42676 -0.39584,0.11133 -0.84425,0.16699 -1.34522,0.16699 m -0.21338,-8.99902 c -0.34636,10e-6 -0.66488,0.0649 -0.95556,0.19482 -0.2907,0.12371 -0.55046,0.30616 -0.7793,0.54737 -0.22885,0.24122 -0.42058,0.54118 -0.5752,0.8999 -0.14844,0.35873 -0.25049,0.77002 -0.30615,1.23389 l 5.02832,0 0,-0.12989 c -0.0186,-0.33398 -0.0742,-0.66487 -0.16699,-0.99267 -0.0866,-0.3278 -0.22576,-0.62158 -0.41748,-0.88135 -0.18556,-0.25976 -0.42677,-0.47004 -0.72363,-0.63086 -0.29689,-0.1608 -0.66489,-0.2412 -1.10401,-0.24121"
         style="font-size:19px;font-family:Roboto;-inkscape-font-specification:Roboto;fill:#757575;fill-opacity:1"
         id="path3037" />
      <path
         d="m 861.43109,815.21362 -5.854,0 0,4.78711 6.80029,0 0,1.45655 -8.58154,0 0,-13.50782 8.48877,0 0,1.46582 -6.70752,0 0,4.3418 5.854,0 0,1.45654"
         style="font-size:19px;font-family:Roboto;-inkscape-font-specification:Roboto;fill:#757575;fill-opacity:1"
         id="path3039" />
      <path
         d="m 865.94916,811.41919 0.0557,1.26172 c 0.35872,-0.45149 0.79166,-0.80403 1.29883,-1.05762 0.50716,-0.25975 1.07617,-0.38964 1.70703,-0.38965 0.4886,10e-6 0.93082,0.068 1.32666,0.2041 0.39583,0.1299 0.7329,0.34328 1.01123,0.64014 0.27831,0.2907 0.49169,0.66798 0.64014,1.13184 0.15461,0.45769 0.23192,1.01433 0.23193,1.66992 l 0,6.57764 -1.71631,0 0,-6.5962 c 0,-0.38964 -0.0433,-0.72053 -0.12988,-0.99267 -0.0866,-0.27831 -0.21648,-0.50406 -0.38965,-0.67725 -0.167,-0.17317 -0.37728,-0.29996 -0.63086,-0.38037 -0.2474,-0.0804 -0.535,-0.1206 -0.86279,-0.1206 -0.55665,0 -1.04525,0.14844 -1.46582,0.44531 -0.42058,0.29688 -0.74838,0.68653 -0.9834,1.16894 l 0,7.15284 -1.71631,0 0,-10.03809 1.62354,0"
         style="font-size:19px;font-family:Roboto;-inkscape-font-specification:Roboto;fill:#757575;fill-opacity:1"
         id="path3041" />
      <path
         d="m 874.41937,816.35474 c 0,-0.76692 0.0897,-1.46272 0.26905,-2.08741 0.18554,-0.63085 0.4484,-1.16893 0.78857,-1.61425 0.34635,-0.45149 0.76383,-0.80094 1.25244,-1.04834 0.4886,-0.24739 1.03906,-0.37109 1.65137,-0.3711 0.63704,10e-6 1.19058,0.11134 1.66064,0.33399 0.47005,0.22266 0.87207,0.54428 1.20606,0.96484 l 0.0835,-1.11328 1.56787,0 0,9.82471 c 0,0.66178 -0.10515,1.24934 -0.31542,1.76269 -0.20412,0.51953 -0.49481,0.95557 -0.87208,1.30811 -0.37728,0.35872 -0.82569,0.63085 -1.34521,0.8164 -0.51954,0.18555 -1.09473,0.27832 -1.72559,0.27832 -0.25977,0 -0.55973,-0.0309 -0.8999,-0.0928 -0.33399,-0.0557 -0.67416,-0.15153 -1.02051,-0.2876 -0.34017,-0.12988 -0.66797,-0.30615 -0.98339,-0.52881 -0.31544,-0.22265 -0.58448,-0.49788 -0.80713,-0.82568 l 0.89062,-1.02978 c 0.21029,0.25976 0.42676,0.47623 0.64942,0.64941 0.22265,0.17317 0.4453,0.31233 0.66796,0.41748 0.22884,0.10514 0.45768,0.17936 0.68653,0.22266 0.23502,0.0495 0.46695,0.0742 0.6958,0.0742 0.40201,0 0.76692,-0.0588 1.09473,-0.17626 0.32779,-0.11133 0.60611,-0.28142 0.83496,-0.51026 0.23501,-0.22884 0.41438,-0.51025 0.53808,-0.84424 0.12369,-0.3278 0.18554,-0.71126 0.18555,-1.15039 l 0,-0.87207 c -0.33399,0.38347 -0.73292,0.67725 -1.19678,0.88135 -0.45769,0.2041 -0.99577,0.30615 -1.61426,0.30615 -0.59994,0 -1.14421,-0.12679 -1.63281,-0.38037 -0.48242,-0.25358 -0.89681,-0.60612 -1.24316,-1.05762 -0.34017,-0.45768 -0.60303,-0.99576 -0.78858,-1.61425 -0.18554,-0.62467 -0.27832,-1.30501 -0.27832,-2.04102 l 0,-0.19482 m 1.72559,0.19482 c 0,0.50098 0.0495,0.97413 0.14844,1.41943 0.10514,0.43913 0.26285,0.8226 0.47314,1.15039 0.21647,0.32781 0.4917,0.58757 0.82568,0.7793 0.33398,0.19173 0.73291,0.2876 1.19678,0.2876 0.30306,0 0.57519,-0.0371 0.81641,-0.11133 0.24739,-0.0742 0.46695,-0.17627 0.65869,-0.30615 0.19791,-0.12988 0.37109,-0.2845 0.51953,-0.46387 0.14843,-0.17936 0.27831,-0.37727 0.38965,-0.59375 l 0,-4.58301 c -0.11134,-0.20409 -0.24122,-0.39273 -0.38965,-0.56591 -0.14844,-0.17936 -0.32162,-0.33398 -0.51953,-0.46387 -0.19174,-0.12988 -0.40821,-0.22883 -0.64941,-0.29688 -0.24122,-0.0742 -0.51026,-0.11132 -0.80713,-0.11132 -0.47006,0 -0.87208,0.099 -1.20606,0.29687 -0.33399,0.19174 -0.60921,0.4546 -0.82568,0.78857 -0.21648,0.334 -0.37728,0.72364 -0.48242,1.16895 -0.099,0.43913 -0.14844,0.90919 -0.14844,1.41016 l 0,0.19482"
         style="font-size:19px;font-family:Roboto;-inkscape-font-specification:Roboto;fill:#757575;fill-opacity:1"
         id="path3043" />
      <path
         d="m 887.34271,821.45728 -1.71631,0 0,-10.03809 1.71631,0 0,10.03809 m -1.85547,-12.70069 c 0,-0.27831 0.0835,-0.51333 0.25049,-0.70508 0.17318,-0.19171 0.42676,-0.28758 0.76074,-0.28759 0.33399,10e-6 0.58757,0.0959 0.76075,0.28759 0.17317,0.19175 0.25976,0.42677 0.25976,0.70508 0,0.27833 -0.0866,0.51027 -0.25976,0.6958 -0.17318,0.18556 -0.42676,0.27833 -0.76075,0.27832 -0.33398,10e-6 -0.58756,-0.0928 -0.76074,-0.27832 -0.16699,-0.18553 -0.25049,-0.41747 -0.25049,-0.6958"
         style="font-size:19px;font-family:Roboto;-inkscape-font-specification:Roboto;fill:#757575;fill-opacity:1"
         id="path3045" />
      <path
         d="m 891.70306,811.41919 0.0557,1.26172 c 0.35872,-0.45149 0.79166,-0.80403 1.29883,-1.05762 0.50715,-0.25975 1.07616,-0.38964 1.70703,-0.38965 0.4886,10e-6 0.93082,0.068 1.32666,0.2041 0.39582,0.1299 0.7329,0.34328 1.01123,0.64014 0.27831,0.2907 0.49169,0.66798 0.64013,1.13184 0.15462,0.45769 0.23193,1.01433 0.23194,1.66992 l 0,6.57764 -1.71631,0 0,-6.5962 c -10e-6,-0.38964 -0.0433,-0.72053 -0.12988,-0.99267 -0.0866,-0.27831 -0.21648,-0.50406 -0.38965,-0.67725 -0.167,-0.17317 -0.37729,-0.29996 -0.63086,-0.38037 -0.2474,-0.0804 -0.535,-0.1206 -0.86279,-0.1206 -0.55665,0 -1.04526,0.14844 -1.46582,0.44531 -0.42058,0.29688 -0.74838,0.68653 -0.9834,1.16894 l 0,7.15284 -1.71631,0 0,-10.03809 1.62353,0"
         style="font-size:19px;font-family:Roboto;-inkscape-font-specification:Roboto;fill:#757575;fill-opacity:1"
         id="path3047" />
      <path
         d="m 904.74701,821.64282 c -0.6989,0 -1.33285,-0.1206 -1.90186,-0.36181 -0.56282,-0.24121 -1.04525,-0.5752 -1.44726,-1.00196 -0.40202,-0.43294 -0.71127,-0.94628 -0.92774,-1.54004 -0.21647,-0.59374 -0.3247,-1.24316 -0.3247,-1.94824 l 0,-0.38965 c 0,-0.8164 0.1206,-1.54621 0.36181,-2.18945 0.2474,-0.64322 0.5752,-1.1844 0.9834,-1.62354 0.4082,-0.43911 0.87516,-0.7731 1.40088,-1.00195 0.52571,-0.23501 1.07308,-0.35253 1.64209,-0.35254 0.71744,10e-6 1.33593,0.1268 1.85547,0.38037 0.51952,0.24741 0.94628,0.59067 1.28027,1.02979 0.34016,0.43913 0.59065,0.95867 0.75147,1.55859 0.1608,0.59994 0.2412,1.25245 0.24121,1.95752 l 0,0.77002 -6.80029,0 c 0.0124,0.46387 0.0866,0.89682 0.22265,1.29883 0.14225,0.40202 0.34017,0.75147 0.59375,1.04834 0.25976,0.29688 0.56901,0.5319 0.92774,0.70508 0.3649,0.17318 0.7762,0.25976 1.23388,0.25976 0.60612,0 1.11946,-0.12369 1.54004,-0.37109 0.42057,-0.24739 0.78857,-0.57519 1.10401,-0.9834 l 1.04834,0.81641 c -0.16082,0.24739 -0.35564,0.48861 -0.58448,0.72363 -0.22885,0.22884 -0.49789,0.43604 -0.80713,0.62158 -0.30306,0.17936 -0.65251,0.32162 -1.04834,0.42676 -0.39584,0.11133 -0.84424,0.16699 -1.34521,0.16699 m -0.21338,-8.99902 c -0.34636,10e-6 -0.66488,0.0649 -0.95557,0.19482 -0.29069,0.12371 -0.55046,0.30616 -0.77929,0.54737 -0.22885,0.24122 -0.42058,0.54118 -0.5752,0.8999 -0.14844,0.35873 -0.25049,0.77002 -0.30615,1.23389 l 5.02832,0 0,-0.12989 c -0.0186,-0.33398 -0.0742,-0.66487 -0.16699,-0.99267 -0.0866,-0.3278 -0.22576,-0.62158 -0.41748,-0.88135 -0.18556,-0.25976 -0.42677,-0.47004 -0.72364,-0.63086 -0.29688,-0.1608 -0.66488,-0.2412 -1.104,-0.24121"
         style="font-size:19px;font-family:Roboto;-inkscape-font-specification:Roboto;fill:#757575;fill-opacity:1"
         id="path3049" />
    </g>
  </g>
</svg>
